<?xml version="1.0" encoding="iso-8859-1"?>
<!-- Generator: Adobe Illustrator 19.0.0, SVG Export Plug-In . SVG Version: 6.00 Build 0)  -->
<svg version="1.1" id="Layer_1" xmlns="http://www.w3.org/2000/svg" xmlns:xlink="http://www.w3.org/1999/xlink" x="0px" y="0px"
	 viewBox="0 0 489.993 489.993" style="enable-background:new 0 0 489.993 489.993;" xml:space="preserve">
<g id="XMLID_1325_">
	<g id="XMLID_337_">
		<polygon style="fill:#D60B52;" points="237.895,49.709 202.389,71.014 216.591,78.115 273.402,78.115 287.605,71.014 
			252.098,49.709 		"/>
	</g>
	<g id="XMLID_520_">
		<polyline style="fill:#A1083E;" points="244.997,49.709 237.895,49.709 202.389,71.014 216.591,78.115 244.997,78.115 		"/>
	</g>
	<g id="XMLID_487_">
		<rect x="202.389" y="78.115" style="fill:#E0D6C6;" width="85.216" height="49.709"/>
	</g>
	<g id="XMLID_394_">
		<rect x="202.388" y="78.115" style="fill:#D5C9B3;" width="42.608" height="49.709"/>
	</g>
	<g id="XMLID_380_">
		<polygon style="fill:#E0D6C6;" points="316.01,333.763 173.983,333.763 173.983,134.926 188.186,127.824 301.807,127.824 
			316.01,134.926 		"/>
	</g>
	<g id="XMLID_518_">
		<polygon style="fill:#D5C9B3;" points="244.997,333.763 173.983,333.763 173.983,134.926 244.997,127.824 		"/>
	</g>
	<g id="XMLID_486_">
		<circle style="fill:#FFFFFF;" cx="244.997" cy="205.939" r="42.608"/>
	</g>
	<g id="XMLID_304_">
		<rect x="110.071" y="213.04" style="fill:#A1083E;" width="35.507" height="142.027"/>
	</g>
	<g id="XMLID_305_">
		<rect x="344.415" y="213.04" style="fill:#D60B52;" width="35.507" height="142.027"/>
	</g>
	<g id="XMLID_271_">
		<rect x="173.983" y="333.763" style="fill:#D60B52;" width="142.027" height="49.709"/>
	</g>
	<g id="XMLID_489_">
		<rect x="173.983" y="333.763" style="fill:#A1083E;" width="71.013" height="49.709"/>
	</g>
	<g id="XMLID_191_">
		<path style="fill:#1D1D1B;" d="M323.51,390.973H166.483v-64.709H323.51V390.973z M181.483,375.973H308.51v-34.709H181.483V375.973
			z"/>
	</g>
	<g id="XMLID_321_">
		<rect x="180.686" y="404.777" style="fill:#1D1D1B;" width="15" height="21.304"/>
	</g>
	<g id="XMLID_333_">
		<rect x="294.307" y="411.878" style="fill:#1D1D1B;" width="15" height="21.304"/>
	</g>
	<g id="XMLID_322_">
		<rect x="209.091" y="404.777" style="fill:#1D1D1B;" width="15" height="42.608"/>
	</g>
	<g id="XMLID_332_">
		<rect x="265.902" y="404.777" style="fill:#1D1D1B;" width="15" height="42.608"/>
	</g>
	<g id="XMLID_331_">
		<rect x="237.497" y="404.777" style="fill:#1D1D1B;" width="15" height="85.216"/>
	</g>
	<g id="XMLID_335_">
		<path style="fill:#1D1D1B;" d="M244.997,256.047c-27.63,0-50.108-22.479-50.108-50.108s22.479-50.108,50.108-50.108
			c27.629,0,50.108,22.479,50.108,50.108C295.105,233.569,272.626,256.047,244.997,256.047z M244.997,170.831
			c-19.358,0-35.108,15.749-35.108,35.108s15.75,35.108,35.108,35.108c19.358,0,35.108-15.749,35.108-35.108
			C280.105,186.581,264.355,170.831,244.997,170.831z"/>
	</g>
	<g id="XMLID_342_">
		<rect x="216.591" y="283.655" style="fill:#1D1D1B;" width="56.811" height="15"/>
	</g>
	<g id="XMLID_365_">
		<rect x="230.794" y="304.96" style="fill:#1D1D1B;" width="28.406" height="15"/>
	</g>
	<g id="XMLID_368_">
		<rect x="344.017" y="369.27" style="fill:#1D1D1B;" width="15" height="42.608"/>
	</g>
	<g id="XMLID_369_">
		<rect x="365.321" y="369.27" style="fill:#1D1D1B;" width="15" height="28.406"/>
	</g>
	<g>
		<path style="fill:#1D1D1B;" d="M209.888,85.615h70.217v28.007h15V67l-42.608-28.405V0h-15v38.595L194.888,67v46.622h15V85.615z
			 M216.507,70.615l28.489-18.993l28.489,18.993H216.507z"/>
		<path style="fill:#1D1D1B;" d="M336.915,205.54v71.014H323.51V138.92l-18.597-18.596H185.08l-18.597,18.596v137.634h-13.405
			V205.54h-50.507v157.027h50.507v-71.013h13.405v28.006h15V145.133l9.81-9.809h107.408l9.81,9.809V319.56h15v-28.006h13.405v71.013
			h50.507V205.54H336.915z M138.078,347.567h-20.507V220.54h20.507V347.567z M372.422,347.567h-20.507V220.54h20.507V347.567z"/>
	</g>
	<g id="XMLID_371_">
		<rect x="130.976" y="369.27" style="fill:#1D1D1B;" width="15" height="42.608"/>
	</g>
	<g id="XMLID_370_">
		<rect x="109.672" y="369.27" style="fill:#1D1D1B;" width="15" height="28.406"/>
	</g>
	<g id="XMLID_366_">
		<rect x="216.591" y="262.351" style="fill:#1D1D1B;" width="56.811" height="15"/>
	</g>
	<g id="XMLID_339_">
		<polygon style="fill:#1D1D1B;" points="244.997,229.811 234.54,208.9 225.463,213.439 216.591,213.439 216.591,198.439 
			221.922,198.439 241.249,188.776 244.997,196.27 248.744,188.776 268.071,198.439 273.402,198.439 273.402,213.439 
			264.53,213.439 255.453,208.9 		"/>
	</g>
</g>
<g>
</g>
<g>
</g>
<g>
</g>
<g>
</g>
<g>
</g>
<g>
</g>
<g>
</g>
<g>
</g>
<g>
</g>
<g>
</g>
<g>
</g>
<g>
</g>
<g>
</g>
<g>
</g>
<g>
</g>
</svg>
